# xmcd CD database file
#
# Track frame offsets:
#	200
#	18875
#	30855
#	50215
#	70210
#	86047
#	103090
#	134635
#	149272
#	170032
#
# Disc length: 2570 seconds
#
# Revision: 0
# Processed by: cddbd v1.5PL3 Copyright (c) Steve Scherf et al.
# Submitted via: CDex 1.51
#
DISCID=8d0a080a
DTITLE=Charlie Parker - Bop City [CD2]
DYEAR=1948
DGENRE=Jazz
TTITLE0=52nd Street Theme
TTITLE1=Koko
TTITLE2=Ornithology
TTITLE3=Groovin' High
TTITLE4=Cheryl
TTITLE5=Slow Boat To China
TTITLE6=Chasing the Bird
TTITLE7=Half Nelson
TTITLE8=Night In Tunisia
TTITLE9=Scrapple From the Apple
EXTD=YEAR: 1948
EXTT0=
EXTT1=
EXTT2=
EXTT3=
EXTT4=
EXTT5=
EXTT6=
EXTT7=
EXTT8=
EXTT9=
PLAYORDER=
